<svg width="135" height="50" viewBox="0 0 135 50" fill="none" xmlns="http://www.w3.org/2000/svg">
<path d="M5.0982 0.526702V1.43312H1.1775V4.31161H4.36064V5.21803H1.1775V9.06418H0V0.526702H5.0982ZM7.69789 3.44194C7.90492 3.05818 8.19813 2.76008 8.57778 2.54777C8.96597 2.33546 9.43606 2.2293 9.9882 2.2293V3.3807H9.67765C8.35781 3.3807 7.69789 4.05843 7.69789 5.41401V9.06418H6.52039V2.35179H7.69789V3.44194ZM17.8172 5.45076C17.8172 5.66303 17.8042 5.88768 17.7783 6.12445H12.1108C12.154 6.78589 12.3912 7.30439 12.8225 7.68006C13.2624 8.04753 13.793 8.23126 14.4141 8.23126C14.9231 8.23126 15.3457 8.12102 15.6821 7.90054C16.0272 7.67185 16.2688 7.36979 16.4067 6.99412H17.6748C17.4851 7.63927 17.1055 8.16597 16.5361 8.57423C15.9668 8.9744 15.2595 9.17442 14.4141 9.17442C13.7412 9.17442 13.1374 9.03148 12.6025 8.74571C12.0764 8.45995 11.6623 8.05573 11.3603 7.53307C11.0584 7.00233 10.9074 6.38988 10.9074 5.69574C10.9074 5.00159 11.0542 4.39331 11.3474 3.87065C11.6407 3.34799 12.0505 2.94794 12.5766 2.67026C13.1116 2.38446 13.724 2.24155 14.4141 2.24155C15.0869 2.24155 15.6821 2.38037 16.1997 2.65801C16.7173 2.93566 17.1142 3.31945 17.3902 3.80941C17.6748 4.29116 17.8172 4.83831 17.8172 5.45076ZM16.6008 5.21803C16.6008 4.79336 16.5017 4.43006 16.3032 4.12788C16.1049 3.81761 15.8331 3.58488 15.488 3.42969C15.1516 3.26641 14.7764 3.18471 14.3623 3.18471C13.7671 3.18471 13.2582 3.36441 12.8354 3.72367C12.4214 4.08293 12.1842 4.58109 12.1237 5.21803H16.6008ZM25.8413 5.45076C25.8413 5.66303 25.8283 5.88768 25.8024 6.12445H20.1349C20.178 6.78589 20.4153 7.30439 20.8466 7.68006C21.2865 8.04753 21.817 8.23126 22.4381 8.23126C22.9471 8.23126 23.3698 8.12102 23.7062 7.90054C24.0513 7.67185 24.2928 7.36979 24.4308 6.99412H25.6989C25.5091 7.63927 25.1296 8.16597 24.5602 8.57423C23.9909 8.9744 23.2835 9.17442 22.4381 9.17442C21.7653 9.17442 21.1614 9.03148 20.6266 8.74571C20.1004 8.45995 19.6863 8.05573 19.3844 7.53307C19.0825 7.00233 18.9315 6.38988 18.9315 5.69574C18.9315 5.00159 19.0781 4.39331 19.3715 3.87065C19.6648 3.34799 20.0745 2.94794 20.6007 2.67026C21.1355 2.38446 21.7481 2.24155 22.4381 2.24155C23.111 2.24155 23.7062 2.38037 24.2238 2.65801C24.7414 2.93566 25.1383 3.31945 25.4143 3.80941C25.6989 4.29116 25.8413 4.83831 25.8413 5.45076ZM24.6249 5.21803C24.6249 4.79336 24.5257 4.43006 24.3273 4.12788C24.129 3.81761 23.8572 3.58488 23.5121 3.42969C23.1757 3.26641 22.8005 3.18471 22.3864 3.18471C21.7912 3.18471 21.2823 3.36441 20.8595 3.72367C20.4455 4.08293 20.2083 4.58109 20.1478 5.21803H24.6249ZM32.3126 4.10338V5.04655H27.1497V4.10338H32.3126ZM35.9587 3.27046V7.22685C35.9587 7.55353 36.0321 7.78626 36.1787 7.92504C36.3253 8.05573 36.5798 8.12102 36.9421 8.12102H37.8091V9.06418H36.748C36.0924 9.06418 35.6007 8.92124 35.2729 8.63547C34.9452 8.34971 34.7812 7.88008 34.7812 7.22685V3.27046H33.8625V2.35179H34.7812V0.661441H35.9587V2.35179H37.8091V3.27046H35.9587ZM42.3284 9.17442C41.664 9.17442 41.0603 9.03148 40.5168 8.74571C39.9819 8.45995 39.5593 8.05573 39.2487 7.53307C38.9467 7.00233 38.7959 6.38988 38.7959 5.69574C38.7959 5.0098 38.9511 4.40556 39.2617 3.8829C39.5808 3.35216 40.0122 2.94794 40.5556 2.67026C41.0991 2.38446 41.7073 2.24155 42.3801 2.24155C43.053 2.24155 43.6611 2.38446 44.2046 2.67026C44.7481 2.94794 45.1751 3.34799 45.4856 3.87065C45.8047 4.39331 45.9644 5.00159 45.9644 5.69574C45.9644 6.38988 45.8004 7.00233 45.4727 7.53307C45.1535 8.05573 44.7178 8.45995 44.1658 8.74571C43.6137 9.03148 43.0012 9.17442 42.3284 9.17442ZM42.3284 8.19451C42.751 8.19451 43.1478 8.10056 43.5188 7.91279C43.8897 7.72501 44.1873 7.44329 44.4116 7.06761C44.6446 6.69194 44.761 6.23469 44.761 5.69574C44.761 5.15679 44.6488 4.69953 44.4246 4.32386C44.2002 3.94819 43.907 3.67063 43.5447 3.49094C43.1824 3.30316 42.7898 3.20921 42.3672 3.20921C41.9358 3.20921 41.5391 3.30316 41.1767 3.49094C40.823 3.67063 40.5383 3.94819 40.3227 4.32386C40.107 4.69953 39.9992 5.15679 39.9992 5.69574C39.9992 6.2429 40.1028 6.70419 40.3098 7.07986C40.5254 7.45554 40.81 7.73726 41.1638 7.92504C41.5174 8.10473 41.9056 8.19451 42.3284 8.19451ZM52.4297 4.10338V5.04655H47.2668V4.10338H52.4297ZM55.817 3.58893C56.0499 3.20517 56.3949 2.88666 56.8521 2.63351C57.318 2.37221 57.857 2.24155 58.4696 2.24155C59.0992 2.24155 59.6686 2.38446 60.1776 2.67026C60.6952 2.95603 61.1006 3.36024 61.3939 3.8829C61.6872 4.39735 61.8339 4.99755 61.8339 5.68349C61.8339 6.36122 61.6872 6.96558 61.3939 7.49633C61.1006 8.02707 60.6952 8.43949 60.1776 8.73346C59.6686 9.02744 59.0992 9.17442 58.4696 9.17442C57.8657 9.17442 57.3309 9.04789 56.8651 8.79471C56.4078 8.53344 56.0584 8.2108 55.817 7.82705V12.2489H54.6395V2.35179H55.817V3.58893ZM60.6305 5.68349C60.6305 5.17724 60.5226 4.73628 60.307 4.36061C60.0913 3.98493 59.798 3.69917 59.4271 3.50318C59.0648 3.3072 58.6637 3.20921 58.2237 3.20921C57.7923 3.20921 57.3912 3.31124 57.0204 3.51543C56.6581 3.71142 56.3647 4.00135 56.1405 4.38511C55.9248 4.76078 55.817 5.19757 55.817 5.69574C55.817 6.20198 55.9248 6.64711 56.1405 7.03087C56.3647 7.40654 56.6581 7.69635 57.0204 7.90054C57.3912 8.09652 57.7923 8.19451 58.2237 8.19451C58.6637 8.19451 59.0648 8.09652 59.4271 7.90054C59.798 7.69635 60.0913 7.40654 60.307 7.03087C60.5226 6.64711 60.6305 6.19794 60.6305 5.68349ZM64.5613 0V9.06418H63.3838V0H64.5613ZM66.1281 5.68349C66.1281 4.99755 66.2748 4.39735 66.5681 3.8829C66.8614 3.36024 67.2626 2.95603 67.7715 2.67026C68.2891 2.38446 68.8627 2.24155 69.4924 2.24155C70.1135 2.24155 70.6527 2.36812 71.1099 2.62126C71.5671 2.87441 71.9079 3.19292 72.1321 3.57668V2.35179H73.3226V9.06418H72.1321V7.8148C71.8992 8.20676 71.5498 8.53344 71.084 8.79471C70.6269 9.04789 70.0919 9.17442 69.4795 9.17442C68.8497 9.17442 68.2804 9.02744 67.7715 8.73346C67.2626 8.43949 66.8614 8.02707 66.5681 7.49633C66.2748 6.96558 66.1281 6.36122 66.1281 5.68349ZM72.1321 5.69574C72.1321 5.18949 72.0243 4.74853 71.8086 4.37286C71.5929 3.99718 71.2997 3.71142 70.9287 3.51543C70.5664 3.31124 70.1653 3.20921 69.7254 3.20921C69.2854 3.20921 68.8843 3.3072 68.522 3.50318C68.1597 3.69917 67.8707 3.98493 67.655 4.36061C67.4393 4.73628 67.3315 5.17724 67.3315 5.68349C67.3315 6.19794 67.4393 6.64711 67.655 7.03087C67.8707 7.40654 68.1597 7.69635 68.522 7.90054C68.8843 8.09652 69.2854 8.19451 69.7254 8.19451C70.1653 8.19451 70.5664 8.09652 70.9287 7.90054C71.2997 7.69635 71.5929 7.40654 71.8086 7.03087C72.0243 6.64711 72.1321 6.20198 72.1321 5.69574ZM81.4199 2.35179L77.1498 12.2244H75.9335L77.331 8.99069L74.4713 2.35179H75.7782L78.0038 7.7903L80.2036 2.35179H81.4199ZM87.5206 4.10338V5.04655H82.3578V4.10338H87.5206ZM96.5626 3.00098C96.3125 2.50285 95.9502 2.11906 95.4757 1.84958C95.0012 1.57194 94.4492 1.43312 93.8194 1.43312C93.1896 1.43312 92.6203 1.57194 92.1114 1.84958C91.611 2.11906 91.2143 2.51102 90.9209 3.02548C90.6363 3.53172 90.4939 4.11967 90.4939 4.78932C90.4939 5.45897 90.6363 6.04691 90.9209 6.55316C91.2143 7.05941 91.611 7.45137 92.1114 7.72905C92.6203 7.99853 93.1896 8.13327 93.8194 8.13327C94.6993 8.13327 95.4239 7.88425 95.9932 7.38609C96.5626 6.88792 96.8947 6.21423 96.9896 5.36502H93.3924V4.4586H98.2447V5.31602C98.1758 6.01825 97.9428 6.6634 97.546 7.25135C97.1491 7.83109 96.6273 8.2925 95.9803 8.63547C95.3333 8.97023 94.613 9.13768 93.8194 9.13768C92.9826 9.13768 92.2192 8.95394 91.5291 8.58648C90.839 8.2108 90.2911 7.69231 89.8858 7.03087C89.4889 6.36943 89.2905 5.62224 89.2905 4.78932C89.2905 3.95639 89.4889 3.20921 89.8858 2.54777C90.2911 1.87816 90.839 1.35963 91.5291 0.992161C92.2192 0.616524 92.9826 0.428711 93.8194 0.428711C94.7769 0.428711 95.6223 0.653271 96.3555 1.1024C97.0974 1.55153 97.6366 2.18438 97.973 3.00098H96.5626ZM99.3617 5.68349C99.3617 4.99755 99.5083 4.39735 99.8016 3.8829C100.095 3.36024 100.496 2.95603 101.005 2.67026C101.523 2.38446 102.096 2.24155 102.726 2.24155C103.347 2.24155 103.886 2.36812 104.343 2.62126C104.801 2.87441 105.141 3.19292 105.366 3.57668V2.35179H106.556V9.06418H105.366V7.8148C105.133 8.20676 104.783 8.53344 104.318 8.79471C103.86 9.04789 103.325 9.17442 102.713 9.17442C102.083 9.17442 101.514 9.02744 101.005 8.73346C100.496 8.43949 100.095 8.02707 99.8016 7.49633C99.5083 6.96558 99.3617 6.36122 99.3617 5.68349ZM105.366 5.69574C105.366 5.18949 105.258 4.74853 105.042 4.37286C104.826 3.99718 104.533 3.71142 104.162 3.51543C103.8 3.31124 103.399 3.20921 102.959 3.20921C102.519 3.20921 102.118 3.3072 101.755 3.50318C101.393 3.69917 101.104 3.98493 100.889 4.36061C100.673 4.73628 100.565 5.17724 100.565 5.68349C100.565 6.19794 100.673 6.64711 100.889 7.03087C101.104 7.40654 101.393 7.69635 101.755 7.90054C102.118 8.09652 102.519 8.19451 102.959 8.19451C103.399 8.19451 103.8 8.09652 104.162 7.90054C104.533 7.69635 104.826 7.40654 105.042 7.03087C105.258 6.64711 105.366 6.20198 105.366 5.69574ZM117.074 2.2293C117.625 2.2293 118.116 2.33954 118.549 2.56002C118.98 2.77233 119.32 3.09493 119.571 3.52768C119.821 3.96044 119.946 4.48714 119.946 5.10779V9.06418H118.782V5.26703C118.782 4.59738 118.604 4.08709 118.251 3.73591C117.906 3.37665 117.436 3.19696 116.841 3.19696C116.227 3.19696 115.741 3.38474 115.378 3.76041C115.016 4.12788 114.835 4.66279 114.835 5.36502V9.06418H113.67V5.26703C113.67 4.59738 113.493 4.08709 113.14 3.73591C112.794 3.37665 112.325 3.19696 111.729 3.19696C111.116 3.19696 110.63 3.38474 110.267 3.76041C109.905 4.12788 109.723 4.66279 109.723 5.36502V9.06418H108.546V2.35179H109.723V3.31945C109.956 2.96828 110.267 2.69884 110.655 2.51102C111.051 2.32321 111.487 2.2293 111.962 2.2293C112.558 2.2293 113.083 2.35587 113.541 2.60901C113.998 2.86216 114.338 3.23371 114.563 3.72367C114.761 3.25 115.089 2.88257 115.547 2.62126C116.003 2.35996 116.512 2.2293 117.074 2.2293ZM128.346 5.45076C128.346 5.66303 128.334 5.88768 128.308 6.12445H122.64C122.684 6.78589 122.921 7.30439 123.352 7.68006C123.792 8.04753 124.322 8.23126 124.943 8.23126C125.453 8.23126 125.875 8.12102 126.211 7.90054C126.557 7.67185 126.799 7.36979 126.936 6.99412H128.204C128.015 7.63927 127.635 8.16597 127.065 8.57423C126.496 8.9744 125.79 9.17442 124.943 9.17442C124.271 9.17442 123.668 9.03148 123.132 8.74571C122.606 8.45995 122.192 8.05573 121.89 7.53307C121.588 7.00233 121.437 6.38988 121.437 5.69574C121.437 5.00159 121.584 4.39331 121.877 3.87065C122.17 3.34799 122.581 2.94794 123.106 2.67026C123.642 2.38446 124.254 2.24155 124.943 2.24155C125.616 2.24155 126.211 2.38037 126.729 2.65801C127.247 2.93566 127.644 3.31945 127.919 3.80941C128.204 4.29116 128.346 4.83831 128.346 5.45076ZM127.13 5.21803C127.13 4.79336 127.032 4.43006 126.833 4.12788C126.635 3.81761 126.363 3.58488 126.017 3.42969C125.681 3.26641 125.306 3.18471 124.892 3.18471C124.296 3.18471 123.788 3.36441 123.365 3.72367C122.951 4.08293 122.714 4.58109 122.653 5.21803H127.13ZM132.412 9.17442C131.869 9.17442 131.381 9.08868 130.95 8.9172C130.518 8.73751 130.177 8.49253 129.928 8.18226C129.677 7.86379 129.54 7.50037 129.514 7.09211H130.73C130.764 7.42687 130.928 7.70052 131.222 7.91279C131.523 8.12506 131.915 8.23126 132.399 8.23126C132.847 8.23126 133.201 8.13731 133.46 7.94953C133.719 7.76176 133.848 7.52487 133.848 7.2391C133.848 6.94513 133.71 6.72869 133.434 6.58991C133.157 6.44292 132.73 6.29998 132.153 6.1612C131.627 6.0305 131.196 5.89993 130.859 5.76923C130.531 5.63045 130.246 5.4303 130.005 5.16903C129.772 4.89956 129.656 4.54838 129.656 4.11563C129.656 3.77266 129.763 3.45823 129.979 3.17246C130.194 2.88666 130.501 2.66209 130.898 2.49878C131.294 2.32729 131.747 2.24155 132.257 2.24155C133.041 2.24155 133.675 2.42936 134.159 2.805C134.642 3.18067 134.9 3.69512 134.935 4.34836H133.758C133.732 3.99718 133.581 3.71546 133.305 3.50318C133.037 3.29091 132.675 3.18471 132.218 3.18471C131.795 3.18471 131.458 3.27046 131.209 3.44194C130.958 3.61342 130.833 3.83795 130.833 4.11563C130.833 4.33611 130.906 4.51984 131.053 4.66683C131.209 4.80561 131.398 4.92001 131.623 5.0098C131.856 5.0915 132.174 5.18533 132.58 5.29152C133.089 5.42222 133.503 5.55279 133.823 5.68349C134.141 5.80598 134.413 5.99375 134.638 6.24694C134.871 6.50012 134.991 6.83084 135 7.2391C135 7.60657 134.891 7.93729 134.677 8.23126C134.46 8.52523 134.154 8.75796 133.758 8.92945C133.37 9.09272 132.921 9.17442 132.412 9.17442ZM7.44544 36.3841H15.5611V40.9113H1.24996V16.8349H7.44544V36.3841ZM21.6321 19.7844C20.5452 19.7844 19.6515 19.4871 18.9511 18.8927C18.2747 18.2754 17.9366 17.5208 17.9366 16.6291C17.9366 15.7145 18.2747 14.9599 18.9511 14.3655C19.6515 13.7482 20.5452 13.4395 21.6321 13.4395C22.6949 13.4395 23.5644 13.7482 24.2408 14.3655C24.9412 14.9599 25.2915 15.7145 25.2915 16.6291C25.2915 17.5208 24.9412 18.2754 24.2408 18.8927C23.5644 19.4871 22.6949 19.7844 21.6321 19.7844ZM24.7118 21.7736V40.9113H18.5163V21.7736H24.7118ZM35.397 24.4831C35.9767 23.5914 36.81 22.8711 37.8969 22.3224C38.9839 21.7736 40.2278 21.4993 41.6287 21.4993C43.2953 21.4993 44.8049 21.8994 46.1576 22.6997C47.5102 23.4999 48.5729 24.6432 49.3459 26.1293C50.143 27.6155 50.5415 29.3419 50.5415 31.3082C50.5415 33.2745 50.143 35.0122 49.3459 36.5213C48.5729 38.0075 47.5102 39.1622 46.1576 39.9853C44.8049 40.7855 43.2953 41.1857 41.6287 41.1857C40.2036 41.1857 38.9597 40.9227 37.8969 40.3969C36.8341 39.8481 36.0008 39.1279 35.397 38.2362V40.9113H29.2015V15.5316H35.397V24.4831ZM44.2373 31.3082C44.2373 29.8448 43.8026 28.7016 42.933 27.8785C42.0876 27.0325 41.0369 26.6095 39.7809 26.6095C38.5491 26.6095 37.4984 27.0325 36.6289 27.8785C35.7834 28.7245 35.3608 29.8791 35.3608 31.3425C35.3608 32.8059 35.7834 33.9604 36.6289 34.8065C37.4984 35.6525 38.5491 36.0755 39.7809 36.0755C41.0128 36.0755 42.0635 35.6525 42.933 34.8065C43.8026 33.9377 44.2373 32.7716 44.2373 31.3082ZM59.9873 24.9633C60.7119 23.9114 61.6177 23.0883 62.7046 22.4939C63.7915 21.8765 64.9992 21.5679 66.3277 21.5679V27.7756H64.6248C63.0789 27.7756 61.9196 28.0957 61.1467 28.7359C60.3737 29.3533 59.9873 30.4508 59.9873 32.0284V40.9113H53.7918V21.7736H59.9873V24.9633ZM68.0571 31.3082C68.0571 29.3419 68.4436 27.6155 69.2164 26.1293C70.0135 24.6432 71.0884 23.4999 72.441 22.6997C73.7937 21.8994 75.3032 21.4993 76.9698 21.4993C78.395 21.4993 79.6389 21.7736 80.7016 22.3224C81.7885 22.8711 82.6219 23.5914 83.2016 24.4831V21.7736H89.397V40.9113H83.2016V38.2019C82.5978 39.0936 81.7523 39.8138 80.6654 40.3626C79.6027 40.9113 78.3588 41.1857 76.9336 41.1857C75.2912 41.1857 73.7937 40.7855 72.441 39.9853C71.0884 39.1622 70.0135 38.0075 69.2164 36.5213C68.4436 35.0122 68.0571 33.2745 68.0571 31.3082ZM83.2016 31.3425C83.2016 29.8791 82.7668 28.7245 81.8972 27.8785C81.0519 27.0325 80.0132 26.6095 78.7814 26.6095C77.5495 26.6095 76.4988 27.0325 75.6293 27.8785C74.784 28.7016 74.3612 29.8448 74.3612 31.3082C74.3612 32.7716 74.784 33.9377 75.6293 34.8065C76.4988 35.6525 77.5495 36.0755 78.7814 36.0755C80.0132 36.0755 81.0519 35.6525 81.8972 34.8065C82.7668 33.9604 83.2016 32.8059 83.2016 31.3425ZM100.075 24.9633C100.799 23.9114 101.705 23.0883 102.792 22.4939C103.879 21.8765 105.087 21.5679 106.415 21.5679V27.7756H104.712C103.166 27.7756 102.007 28.0957 101.234 28.7359C100.461 29.3533 100.075 30.4508 100.075 32.0284V40.9113H93.8792V21.7736H100.075V24.9633ZM130.029 21.7736L117.348 50H110.681L115.319 40.2597L107.094 21.7736H114.015L118.688 33.7433L123.326 21.7736H130.029Z" fill="white"/>
</svg>
